<svg xmlns="http://www.w3.org/2000/svg" viewBox="0 0 200 200" fill="none">
  <defs>
    <linearGradient id="sGrad" x1="0%" y1="0%" x2="100%" y2="100%">
      <stop offset="0%" stop-color="#ffffff"/>
      <stop offset="50%" stop-color="#d19fff"/>
      <stop offset="100%" stop-color="#8a3eff"/>
    </linearGradient>
    <radialGradient id="glowGrad" cx="50%" cy="50%" r="50%">
      <stop offset="0%" stop-color="#ec4899" stop-opacity=".4"/>
      <stop offset="100%" stop-color="#000" stop-opacity="0"/>
    </radialGradient>
  </defs>
  <circle cx="100" cy="100" r="92" fill="url(#glowGrad)"/>
  <path d="M44 66c0-12 9-22 21-22h30c12 0 21 10 21 22s-9 22-21 22H77c-4 0-7 3-7 7s3 7 7 7h39c12 0 21 10 21 22s-9 22-21 22H65c-12 0-21-10-21-22v-2h28v2c0 4 3 7 7 7h28c4 0 7-3 7-7s-3-7-7-7H65c-12 0-21-10-21-22s9-22 21-22h30c4 0 7-3 7-7s-3-7-7-7H44z" fill="url(#sGrad)"/>
</svg>
