<svg xmlns="http://www.w3.org/2000/svg" viewBox="0 0 100 100" fill="none">
  <defs>
    <linearGradient id="gearGrad" x1="0%" y1="0%" x2="100%" y2="100%">
      <stop offset="0%" stop-color="#c5a5ff"/>
      <stop offset="100%" stop-color="#5b25b7"/>
    </linearGradient>
  </defs>
  <path d="M50 38a12 12 0 1 0 0 24a12 12 0 1 0 0-24Zm0-22 5 7a4 4 0 0 0 4 2l8-3a4 4 0 0 1 5 3l4 7a4 4 0 0 1-1 5l-4 6a4 4 0 0 0 0 4l4 6a4 4 0 0 1 1 5l-4 7a4 4 0 0 1-5 3l-8-3a4 4 0 0 0-4 2l-5 7-5-7a4 4 0 0 0-4-2l-8 3a4 4 0 0 1-5-3l-4-7a4 4 0 0 1 1-5l4-6a4 4 0 0 0 0-4l-4-6a4 4 0 0 1-1-5l4-7a4 4 0 0 1 5-3l8 3a4 4 0 0 0 4-2l5-7Z" fill="url(#gearGrad)"/>
</svg>
